<?xml version="1.0" encoding="UTF-8" standalone="no"?>
<svg id="svg2" xmlns:rdf="http://www.w3.org/1999/02/22-rdf-syntax-ns#" xmlns="http://www.w3.org/2000/svg" xml:space="preserve" height="275.12" width="718.9" version="1.1" xmlns:cc="http://creativecommons.org/ns#" xmlns:dc="http://purl.org/dc/elements/1.1/"><metadata id="metadata8"><rdf:RDF><cc:Work rdf:about=""><dc:format>image/svg+xml</dc:format><dc:type rdf:resource="http://purl.org/dc/dcmitype/StillImage"/><dc:title/></cc:Work></rdf:RDF></metadata><defs id="defs6"><clipPath id="clipPath18"><path id="path20" d="m0 0h576v221h-576v-221z"/></clipPath><clipPath id="clipPath70"><path id="path72" d="m0 220.16h575.12v-220.1h-575.12v220.1z"/></clipPath><clipPath id="clipPath76"><path id="path78" d="m0 0h576v221h-576v-221z"/></clipPath><clipPath id="clipPath88"><path id="path90" d="m0 0h576v221h-576v-221z"/></clipPath><clipPath id="clipPath126"><path id="path128" d="m0 220.16h575.12v-220.1h-575.12v220.1z"/></clipPath><clipPath id="clipPath132"><path id="path134" d="m0 0h576v221h-576v-221z"/></clipPath><clipPath id="clipPath144"><path id="path146" d="m0 0h576v221h-576v-221z"/></clipPath></defs><g id="g10" transform="matrix(1.25 0 0 -1.25 0 275.19)"><g id="g14"><g id="g16" clip-path="url(#clipPath18)"><path id="path22" d="m279.12 40.387c0 2.747-1.599 4.464-5.525 5.928-3.658 1.33-3.931 2.156-3.931 3.318 0 1.333 1.223 2.3 2.91 2.3 1.446 0 2.777-0.543 4.066-1.658l0.468-0.404 1.911 2.462-0.418 0.364c-1.752 1.526-3.642 2.236-5.948 2.236-3.52 0-6.175-2.358-6.175-5.54 0-3.201 2.193-4.661 5.741-5.982 3.442-1.22 3.715-2.114 3.715-3.183 0-1.495-1.284-2.54-3.122-2.54-1.761 0-3.202 0.643-4.819 2.148l-0.455 0.424-1.993-2.416 0.404-0.376c2.008-1.87 4.245-2.779 6.837-2.779 3.67 0 6.334 2.374 6.334 5.698"/><path id="path24" d="m297.06 39.618c-1.408-1.352-2.618-1.903-4.176-1.903-3.16 0-5.453 2.973-5.453 7.07v0.105c0 4.066 2.293 7.017 5.453 7.017 1.493 0 2.779-0.564 4.045-1.772l0.461-0.44 1.962 2.432-0.401 0.372c-1.223 1.134-3.015 2.434-6.041 2.434-5.052 0-8.719-4.234-8.719-10.069v-0.159c0-5.804 3.612-10.016 8.587-10.016 2.444 0 4.385 0.836 6.291 2.711l0.392 0.386-1.956 2.26-0.445-0.428"/><path id="path26" d="m304.83 54.668h3.159v-19.714h-3.159v19.714z"/><path id="path28" d="m318.02 43.404h8.371v2.973h-8.371v5.292h9.325v2.999h-12.484v-19.714h12.616v3h-9.457v5.45"/><path id="path30" d="m344.87 41.429-8.795 13.239h-2.781v-19.714h3.105v13.585l9.034-13.585h2.57v19.714h-3.133v-13.239"/><path id="path32" d="m366.87 39.618c-1.407-1.352-2.618-1.903-4.178-1.903-3.159 0-5.453 2.973-5.453 7.07v0.105c0 4.066 2.294 7.017 5.453 7.017 1.494 0 2.78-0.564 4.047-1.772l0.461-0.44 1.962 2.432-0.401 0.372c-1.223 1.134-3.015 2.434-6.041 2.434-5.052 0-8.719-4.234-8.719-10.069v-0.159c0-5.804 3.61-10.016 8.586-10.016 2.445 0 4.386 0.836 6.292 2.711l0.392 0.386-1.956 2.26-0.445-0.428"/><path id="path34" d="m377.61 43.404h8.37v2.973h-8.37v5.292h9.325v2.999h-12.483v-19.714h12.615v3h-9.457v5.45"/><path id="path36" d="m398.68 37.688c-1.761 0-3.203 0.643-4.82 2.149l-0.456 0.423-1.991-2.416 0.404-0.376c2.008-1.87 4.244-2.779 6.835-2.779 3.67 0 6.334 2.374 6.334 5.698 0 2.747-1.598 4.464-5.524 5.928-3.656 1.33-3.931 2.156-3.931 3.318 0 1.333 1.225 2.3 2.91 2.3 1.447 0 2.777-0.543 4.066-1.658l0.467-0.404 1.913 2.462-0.418 0.364c-1.752 1.526-3.643 2.236-5.95 2.236-3.519 0-6.173-2.358-6.173-5.54 0-3.201 2.192-4.661 5.739-5.982 3.443-1.22 3.718-2.114 3.718-3.183 0-1.495-1.285-2.54-3.123-2.54"/><path id="path38" d="m270.17 10.805h8.371v2.973h-8.371v5.292h9.324v3h-12.484v-19.715h12.617v3h-9.457v5.45"/><path id="path40" d="m284.22 19.044h5.192v-16.689h3.159v16.689h5.219v3.026h-13.57v-3.026"/><path id="path42" d="m312.37 19.044h5.192v-16.689h3.16v16.689h5.218v3.026h-13.57v-3.026"/><path id="path44" d="m334.6 10.805h8.371v2.973h-8.371v5.292h9.324v3h-12.483v-19.715h12.616v3h-9.457v5.45"/><path id="path46" d="m361.95 7.019c-1.407-1.35-2.617-1.902-4.177-1.902-3.16 0-5.454 2.974-5.454 7.069v0.106c0 4.065 2.294 7.016 5.454 7.016 1.494 0 2.779-0.563 4.046-1.771l0.461-0.441 1.962 2.432-0.401 0.372c-1.223 1.134-3.015 2.435-6.041 2.435-5.052 0-8.719-4.235-8.719-10.07v-0.159c0-5.804 3.611-10.015 8.586-10.015 2.444 0 4.385 0.835 6.292 2.71l0.393 0.386-1.956 2.26-0.446-0.428"/><path id="path48" d="m380.46 13.778h-7.781v8.292h-3.159v-19.715h3.159v8.398h7.781v-8.398h3.16v19.715h-3.16v-8.292"/><path id="path50" d="m401.91 8.831-8.795 13.239h-2.779v-19.715h3.105v13.585l9.034-13.585h2.568v19.715h-3.133v-13.239"/><path id="path52" d="m419.63 5.063c-3.099 0-5.348 2.974-5.348 7.07v0.185c0 4.081 2.238 7.043 5.322 7.043 3.099 0 5.348-2.974 5.348-7.069v-0.186c0-4.081-2.238-7.043-5.322-7.043zm0 17.298c-4.976 0-8.586-4.234-8.586-10.069v-0.212c0-5.804 3.6-10.016 8.56-10.016 4.959 0 8.559 4.235 8.559 10.069v0.211c0 5.805-3.589 10.017-8.533 10.017"/><path id="path54" d="m437.32 22.07h-3.158v-19.715h11.768v3h-8.61v16.715"/><path id="path56" d="m458.3 5.063c-3.099 0-5.348 2.974-5.348 7.07v0.185c0 4.081 2.239 7.043 5.323 7.043 3.098 0 5.347-2.974 5.347-7.069v-0.186c0-4.081-2.238-7.043-5.322-7.043zm0 17.298c-4.976 0-8.586-4.234-8.586-10.069v-0.212c0-5.804 3.6-10.016 8.561-10.016 4.958 0 8.558 4.235 8.558 10.069v0.211c0 5.805-3.589 10.017-8.533 10.017"/><path id="path58" d="m479.88 10.434h4.635v-4.335c-0.947-0.652-2.2-1.036-3.414-1.036-3.49 0-5.744 2.786-5.744 7.097v0.132c0 4.065 2.337 7.016 5.558 7.016 1.617 0 2.84-0.471 4.088-1.575l0.477-0.421 1.912 2.547-0.436 0.357c-1.818 1.485-3.609 2.119-5.988 2.119-5.128 0-8.85-4.224-8.85-10.043v-0.186c0-5.991 3.577-10.015 8.903-10.015 3.069 0 5.3 1.442 6.358 2.302l0.216 0.176v8.812h-7.715v-2.947"/><path id="path60" d="m494.12 22.07h3.158v-19.715h-3.158v19.715z"/><path id="path62" d="m507.32 10.805h8.37v2.973h-8.37v5.292h9.325v3h-12.483v-19.715h12.615v3h-9.457v5.45"/><path id="path64" d="m529.18 13.717c-3.658 1.33-3.933 2.156-3.933 3.316 0 1.333 1.225 2.302 2.91 2.302 1.448 0 2.779-0.543 4.068-1.659l0.467-0.405 1.911 2.463-0.418 0.364c-1.752 1.527-3.642 2.237-5.948 2.237-3.521 0-6.175-2.359-6.175-5.54 0-3.203 2.193-4.662 5.741-5.983 3.441-1.22 3.716-2.114 3.716-3.182 0-1.496-1.285-2.54-3.123-2.54-1.761 0-3.202 0.642-4.818 2.147l-0.455 0.425-1.994-2.416 0.404-0.376c2.008-1.87 4.244-2.779 6.837-2.779 3.67 0 6.334 2.374 6.334 5.698 0 2.747-1.598 4.464-5.524 5.928"/></g></g><g id="g66"><g id="g68" clip-path="url(#clipPath70)"><g id="g74" clip-path="url(#clipPath76)"><path id="path80" d="m231.14 43.545-7.927-2.149-1.704 9.334 12.816 3.853h7.408v-52.228h-10.593v41.19"/><path id="path82" d="m185.89 217.9h-185.89v-128.41c0-53.473 40.018-89.49 92.761-89.49 14.225 0 27.537 2.634 39.406 7.513l0.005-0.011 22.152 9.256 31.563-14.403v215.54" fill="#b41475"/></g></g></g><g id="g84"><g id="g86" clip-path="url(#clipPath88)"><path id="path92" d="m92.82 47.525-41.116 18.758v110.27h41.116v-129.03" fill="#fff"/><path id="path94" d="m146.11 87.736-40.159-18.322v-21.889l40.159 18.322v21.889" fill="#fff"/><path id="path96" d="m353.09 164.23c-4.08 8.052-9.438 21.937-10.551 36.371h-8.447s2.006-26.002 14.611-43.348h8.775c12.608 17.346 14.612 43.348 14.612 43.348h-8.447c-1.114-14.434-6.469-28.319-10.553-36.371"/><path id="path98" d="m525.54 217.94h-8.664v-17.341h-5.289v-6.621h5.289v-24.302c0-6.656 3.449-12.425 12.057-12.425h4.605v7.715h-3.117c-3.637 0-4.881 1.782-4.881 5.239v23.773h7.998v6.621h-7.998v17.341"/><path id="path100" d="m249.65 178.07c0-8.05-4.967-13.251-12.659-13.251-7.69 0-12.66 5.201-12.66 13.251v39.83h-8.841v-40.256c0-5.926 2.188-11.259 6.161-15.013 3.904-3.692 9.351-5.724 15.34-5.724 4.889 0 9.417 1.354 13.039 3.86l8.461-3.86v60.993h-8.841v-39.83"/><path id="path102" d="m300.65 196.93c-2.521 2.437-6.761 4.301-12.981 4.301-4.087 0-7.859-1.556-10.231-3.231l-7.086 3.231v-43.981h8.67v26.25c0 6.72 3.804 9.607 8.647 9.607s8.645-2.887 8.645-9.607v-26.25h8.672v27.53c0 4.84-1.021 8.918-4.336 12.15"/><path id="path104" d="m430.42 183.5c0 6.72 3.801 9.607 8.644 9.607 1.698 0 3.264-0.354 4.588-1.103 1.481 2.4 3.117 5.056 4.6 7.46-2.371 1.082-5.416 1.767-9.188 1.767-4.086 0-7.859-1.556-10.232-3.231l-7.084 3.231v-43.981h8.672v26.25"/><path id="path106" d="m315.86 200.6h8.663v-43.351h-8.663v43.351z"/><path id="path108" d="m315.86 217.94h8.663v-8.668h-8.663v8.668z"/><path id="path110" d="m493.44 200.6h8.664v-43.351h-8.664v43.351z"/><path id="path112" d="m493.44 217.94h8.664v-8.668h-8.664v8.668z"/><path id="path114" d="m359.42 120.61h8.664v-43.35h-8.664v43.35z"/><path id="path116" d="m359.42 137.95h8.664v-8.671h-8.664v8.671z"/><path id="path118" d="m386.35 182.5c0.041 1.266 0.105 2.301 0.269 3.231 0.16 0.903 0.41 1.715 0.842 2.716 1.264 3.029 4.584 4.914 8.66 4.914 2.906 0 6.736-0.533 8.486-3.065 0.389-0.562 0.983-2.059 0.461-3.715-0.636-2.012-2.64-3.798-5.959-5.028-4.439-1.642-9.486-2.449-12.732-2.791l-0.027-0.002v3.74zm10.863-25.876c3.701 0 6.644 0.548 9.267 1.722 2.336 1.047 4.463 2.607 6.899 5.056l-5.147 4.869c-1.55-1.561-3.06-2.584-4.746-3.216-1.67-0.626-3.552-0.905-6.107-0.905-5.34 0-9.045 2.698-10.434 7.598l-0.006 0.027 0.028 0.003c4.322 0.577 12.261 1.273 18.92 4.879 3.24 1.756 5.613 3.796 6.707 6.75 0.855 2.313 1.22 5.198 0.49 7.832-0.986 3.564-2.647 5.644-5.236 7.37-2.94 1.955-6.979 2.625-11.748 2.625-2.895 0-5.52-0.503-7.801-1.496-2.25-0.979-4.184-2.439-5.742-4.345-1.557-1.9-2.75-4.253-3.549-6.99-0.807-2.762-1.217-5.935-1.217-9.427 0-7.783 1.902-13.635 5.654-17.399 3.274-3.285 7.907-4.953 13.768-4.953"/><path id="path120" d="m268.22 98.771-0.029-0.004v3.741c0.043 1.266 0.105 2.299 0.27 3.231 0.159 0.902 0.411 1.714 0.842 2.715 1.265 3.032 4.584 4.914 8.66 4.914 2.906 0 6.737-0.531 8.488-3.066 0.387-0.561 0.981-2.058 0.459-3.714-0.635-2.012-2.64-3.796-5.959-5.028-4.438-1.641-9.486-2.449-12.731-2.789zm19.508-2.106c3.243 1.756 5.615 3.797 6.709 6.749 0.856 2.313 1.218 5.198 0.489 7.834-0.987 3.564-2.647 5.641-5.239 7.368-2.937 1.955-6.976 2.626-11.747 2.626-2.894 0-5.518-0.504-7.799-1.495-2.251-0.98-4.184-2.442-5.743-4.346-1.556-1.901-2.75-4.254-3.548-6.99-0.807-2.763-1.216-5.935-1.216-9.428 0-7.782 1.901-13.636 5.651-17.397 3.277-3.287 7.908-4.952 13.77-4.952 3.701 0 6.646 0.545 9.267 1.719 2.336 1.047 4.465 2.607 6.899 5.056l-5.147 4.869c-1.551-1.561-3.06-2.583-4.746-3.216-1.67-0.626-3.553-0.904-6.106-0.904-5.34 0-9.046 2.699-10.434 7.597l-0.008 0.027 0.029 0.005c4.324 0.575 12.262 1.271 18.919 4.878"/></g></g><g id="g122"><g id="g124" clip-path="url(#clipPath126)"><g id="g130" clip-path="url(#clipPath132)"><path id="path136" d="m435.29 98.771-0.027-0.004v3.741c0.043 1.266 0.105 2.299 0.269 3.231 0.158 0.902 0.41 1.714 0.842 2.715 1.266 3.032 4.582 4.914 8.658 4.914 2.908 0 6.74-0.531 8.49-3.066 0.387-0.561 0.981-2.058 0.459-3.714-0.634-2.012-2.638-3.796-5.959-5.028-4.437-1.641-9.486-2.449-12.732-2.789zm19.51-2.106c3.242 1.756 5.613 3.797 6.709 6.749 0.855 2.313 1.218 5.198 0.488 7.834-0.986 3.564-2.647 5.641-5.238 7.368-2.936 1.955-6.977 2.626-11.746 2.626-2.897 0-5.52-0.504-7.801-1.495-2.25-0.98-4.184-2.442-5.744-4.346-1.553-1.901-2.748-4.254-3.549-6.99-0.805-2.763-1.213-5.935-1.213-9.428 0-7.782 1.9-13.636 5.65-17.397 3.276-3.287 7.909-4.952 13.77-4.952 3.699 0 6.646 0.545 9.267 1.719 2.336 1.047 4.465 2.607 6.897 5.056l-5.145 4.869c-1.55-1.561-3.06-2.583-4.746-3.216-1.67-0.626-3.55-0.904-6.105-0.904-5.342 0-9.049 2.699-10.436 7.597l-0.008 0.027 0.032 0.005c4.322 0.575 12.261 1.271 18.918 4.878"/><path id="path138" d="m548 178.76v3.74c0.041 1.266 0.104 2.301 0.27 3.231 0.158 0.903 0.41 1.715 0.839 2.716 1.266 3.029 4.586 4.914 8.663 4.914 2.906 0 6.736-0.533 8.488-3.065 0.387-0.562 0.978-2.059 0.457-3.715-0.635-2.012-2.639-3.798-5.957-5.028-4.44-1.642-9.488-2.449-12.733-2.791l-0.027-0.002zm17.137-13.705c-1.67-0.626-3.553-0.905-6.108-0.905-5.341 0-9.045 2.698-10.433 7.598l-0.008 0.027 0.029 0.003c4.323 0.577 12.262 1.273 18.92 4.879 3.24 1.756 5.613 3.796 6.707 6.75 0.856 2.313 1.221 5.198 0.49 7.832-0.988 3.564-2.646 5.644-5.238 7.37-2.937 1.955-6.978 2.625-11.746 2.625-2.894 0-5.521-0.503-7.801-1.496-2.252-0.979-4.183-2.439-5.742-4.345-1.557-1.9-2.75-4.253-3.549-6.99-0.806-2.762-1.215-5.935-1.215-9.427 0-7.783 1.901-13.635 5.651-17.399 3.275-3.285 7.908-4.953 13.769-4.953 3.702 0 6.645 0.548 9.268 1.722 2.336 1.047 4.463 2.607 6.898 5.056l-5.148 4.869c-1.549-1.561-3.059-2.584-4.744-3.216"/></g></g></g><g id="g140"><g id="g142" clip-path="url(#clipPath144)"><path id="path148" d="m472.15 182.76-6.795 0.601c-4.59 0.431-5.946 2.404-5.946 4.988 0 3.266 2.631 5.584 7.817 5.584 4.076 0 7.896-0.858 10.617-3.183l5.439 5.59c-3.99 3.522-9.515 4.897-15.974 4.897-9.004 0-16.227-4.81-16.227-13.317 0-7.654 4.672-11.348 12.742-12.036l6.883-0.598c4.166-0.35 5.779-2.237 5.779-5.165 0-4.119-4.164-6.01-9.431-6.01-4.25 0-8.92 0.945-12.408 4.555l-5.69-5.759c5.096-5.074 11.043-6.28 18.098-6.28 10.279 0 17.926 4.736 17.926 13.843 0 7.736-4.756 11.604-12.83 12.29"/><path id="path150" d="m242.77 90.973c-0.013-3.099-2.913-6.46-8.103-6.46-7.055 0-10.965 4.676-10.965 12.068v6.027c0.088 2.634 0.255 3.909 1.105 5.865 1.362 3.229 4.914 4.836 8.607 4.836 5.307 0 9.339-1.709 9.356-6.209 0.012-4.031 0.014-12.095 0-16.127zm0 28.441c-2.472 1.088-5.577 1.718-9.378 1.718-12.496 0-18.266-8.071-18.266-22.005 0-16.396 8.576-22.093 19.373-22.093 4.012 0 7.068 1.359 9.713 3.292l7.22-3.292v60.919h-8.662v-18.539"/><path id="path152" d="m331.03 89.678v48.275h-8.665v-48.781c0-6.384 3.569-11.912 11.823-11.912h18.469v7.397h-16.949c-3.486 0-4.678 1.708-4.678 5.021"/><path id="path154" d="m389.35 90.216v47.737h-8.664v-48.266c0-6.654 3.449-12.425 12.056-12.425h4.604v7.717h-3.116c-3.638 0-4.88 1.78-4.88 5.237"/><path id="path156" d="m413.86 90.216v47.737h-8.662v-48.266c0-6.654 3.448-12.425 12.055-12.425h4.604v7.717h-3.116c-3.636 0-4.881 1.78-4.881 5.237"/><path id="path158" d="m567.72 220.16-19.787-9.027v-7.57l19.787 9.029v7.568"/></g></g></g></svg>
