<?xml version="1.0" encoding="UTF-8" standalone="no"?>
<!-- Generator: Adobe Illustrator 16.0.0, SVG Export Plug-In . SVG Version: 6.00 Build 0)  -->

<svg
   xmlns:dc="http://purl.org/dc/elements/1.1/"
   xmlns:cc="http://creativecommons.org/ns#"
   xmlns:rdf="http://www.w3.org/1999/02/22-rdf-syntax-ns#"
   xmlns:svg="http://www.w3.org/2000/svg"
   xmlns="http://www.w3.org/2000/svg"
   xmlns:sodipodi="http://sodipodi.sourceforge.net/DTD/sodipodi-0.dtd"
   xmlns:inkscape="http://www.inkscape.org/namespaces/inkscape"
   version="1.1"
   id="Layer_1"
   x="0px"
   y="0px"
   width="749.302"
   height="199.83951"
   viewBox="0 0 749.30199 199.83951"
   enable-background="new 0 0 612 792"
   xml:space="preserve"
   inkscape:version="0.91 r13725"
   sodipodi:docname="polytechInstrumentation.svg"><metadata
     id="metadata83"><rdf:RDF><cc:Work
         rdf:about=""><dc:format>image/svg+xml</dc:format><dc:type
           rdf:resource="http://purl.org/dc/dcmitype/StillImage" /><dc:title></dc:title></cc:Work></rdf:RDF></metadata><defs
     id="defs81" /><sodipodi:namedview
     pagecolor="#ffffff"
     bordercolor="#666666"
     borderopacity="1"
     objecttolerance="10"
     gridtolerance="10"
     guidetolerance="10"
     inkscape:pageopacity="0"
     inkscape:pageshadow="2"
     inkscape:window-width="1600"
     inkscape:window-height="844"
     id="namedview79"
     showgrid="false"
     fit-margin-top="0"
     fit-margin-left="0"
     fit-margin-right="0"
     fit-margin-bottom="0"
     inkscape:zoom="1.1919192"
     inkscape:cx="312.76253"
     inkscape:cy="163.10255"
     inkscape:window-x="0"
     inkscape:window-y="0"
     inkscape:window-maximized="1"
     inkscape:current-layer="g3" /><g
     id="g3"
     transform="matrix(4.101796,0,0,4.101796,-901.32865,-1517.6235)"><path
       d="m 219.74,397.35 c 0,-2 0,-4 0,-6 0.274,-3.047 1.101,-5.916 2.562,-8.625 3.415,-6.332 8.666,-10.31 15.511,-12.285 1.147,-0.332 2.37,-0.149 3.527,-0.45 46.32,0 92.64,0 138.959,0 1.918,0.294 3.86,0.343 5.726,1.052 8.088,3.077 13.649,8.684 15.583,17.083 2.098,9.115 0.216,17.53 -6.854,24.182 -3.936,3.7 -8.543,6.161 -14.131,6.283 -0.125,0.003 -0.229,0.043 -0.324,0.12 -46.319,0 -92.639,0 -138.959,0 -3.179,-0.225 -6.159,-1.085 -8.97,-2.618 -6.232,-3.397 -10.175,-8.584 -12.142,-15.338 -0.321,-1.107 -0.177,-2.29 -0.488,-3.404 z"
       id="path5"
       inkscape:connector-curvature="0"
       style="fill:#1c1b0f" /><path
       d="m 311.063,371.938 c 22.075,0 44.15,-10e-4 66.227,0 11.433,0 20.612,7.674 22.612,18.896 2.054,11.521 -6.152,23.304 -17.735,25.466 -1.652,0.311 -3.318,0.468 -5.004,0.468 -44.15,-0.005 -88.302,-0.003 -132.453,-0.004 -11.56,0 -20.65,-7.559 -22.729,-18.894 -2.101,-11.458 6.164,-23.331 17.731,-25.468 1.692,-0.313 3.397,-0.47 5.124,-0.469 22.076,0.007 44.152,0.005 66.227,0.005 z"
       id="path13"
       inkscape:connector-curvature="0"
       style="fill:#fee300" /><path
       d="m 233.87,396.518 c 0,-3.958 0.031,-7.917 -0.024,-11.875 -0.014,-0.976 0.298,-1.193 1.222,-1.184 4.238,0.046 8.478,0.012 12.717,0.028 0.716,0.003 1.439,0.068 2.145,0.195 2.758,0.499 5.213,1.581 6.258,4.393 1.083,2.913 0.994,5.835 -1.024,8.401 -1.456,1.849 -3.577,2.526 -5.812,2.699 -1.117,0.085 -1.245,0.53 -1.226,1.469 0.054,2.638 -0.007,5.277 0.032,7.917 0.012,0.787 -0.155,1.132 -1.042,1.133 -2.495,0.004 -2.494,0.044 -2.495,-2.428 0,-2.358 -0.031,-4.72 0.012,-7.077 0.014,-0.751 -0.232,-0.966 -0.959,-0.935 -1.237,0.056 -2.48,-0.015 -3.718,0.026 -0.637,0.021 -0.796,-0.21 -0.819,-0.824 -0.093,-2.548 -0.115,-2.547 2.455,-2.548 3.03,0 3.03,0 3.03,-2.912 0,-2.624 -0.001,-2.604 2.688,-2.463 0.614,0.032 0.857,0.219 0.841,0.843 -0.03,1.159 0.045,2.322 -0.024,3.479 -0.06,0.971 0.341,1.028 1.128,0.827 2.105,-0.542 3.434,-2.044 3.563,-4.126 0.126,-2.016 -0.995,-3.56 -3.138,-4.284 -0.835,-0.282 -1.701,-0.447 -2.586,-0.449 -2.799,-0.007 -5.599,0.035 -8.397,-0.026 -0.933,-0.021 -1.133,0.31 -1.13,1.17 0.028,6.799 -0.009,13.597 0.038,20.395 0.007,1.052 -0.259,1.37 -1.33,1.337 -2.402,-0.074 -2.404,-0.016 -2.404,-2.383 -0.001,-3.6 -0.001,-7.199 -0.001,-10.798 z"
       id="path15"
       inkscape:connector-curvature="0"
       style="fill:#bc0f34" /><path
       style="fill:#202102"
       d="m 208.11523,34.474609 c -6.5439,-0.04615 -13.10441,0.252356 -19.64062,0.03906 -3.00662,-0.09434 -2.44922,1.918262 -2.44922,3.632812 -0.0164,11.14458 -0.008,22.298584 -0.008,33.447266 0,9.347993 0.004,18.691069 0.008,28.039062 0,10.074011 -0.008,9.987141 9.95117,9.560551 2.54722,-0.10255 3.44395,-0.88052 3.39063,-3.42774 -0.11895,-6.554668 -0.0725,-13.114859 -0.0273,-19.677732 0.0492,-7.48988 -0.78772,-6.388863 6.59961,-6.466797 9.18803,-0.09434 18.4253,-0.04528 26.99805,-3.970703 7.35862,-3.371677 12.14979,-8.779396 12.4082,-17.339844 0.34045,-11.62449 -5.42684,-18.793578 -17.69531,-21.8125 -6.46443,-1.587395 -12.99125,-1.977292 -19.53516,-2.023438 z m -1.71679,9.494141 c 1.63282,0.0089 3.64185,0.123283 6.11523,0.261719 4.31919,0.250209 8.45096,1.128398 12.22461,3.1875 3.78596,2.063203 6.57852,5.117903 6.44727,9.691406 -0.12716,4.372515 -2.34568,7.740895 -6.2793,9.857422 -3.83108,2.071407 -7.93413,3.019345 -12.26563,2.859375 -4.22074,-0.15997 -9.62211,1.742134 -12.3457,-0.75586 -2.81793,-2.563622 -0.64861,-8.05562 -0.97265,-12.255859 -0.0123,-0.164072 0,-0.328116 0,-0.492187 0,-10.458042 6.2e-4,-12.392024 7.07617,-12.353516 z"
       id="path17"
       transform="matrix(0.24379564,0,0,0.24379564,219.71892,369.97091)"
       inkscape:connector-curvature="0" /><path
       d="m 376.46,385.056 c 2.454,-2.216 5.113,-2.467 7.921,-1.736 2.146,0.558 3.463,2.096 3.563,4.299 0.124,2.753 0.045,5.516 0.072,8.272 0.005,0.518 -0.196,0.66 -0.701,0.697 -2.407,0.185 -2.402,0.2 -2.405,-2.229 -0.003,-1.838 0.029,-3.679 -0.04,-5.515 -0.085,-2.253 -0.891,-3.381 -2.512,-3.721 -2.252,-0.471 -4.403,0.445 -5.308,2.291 -0.408,0.833 -0.609,1.718 -0.599,2.659 0.021,1.838 -0.032,3.679 0.025,5.516 0.025,0.798 -0.224,1.011 -1.005,1.006 -2.134,-0.014 -2.135,0.022 -2.135,-2.133 0,-5.396 0.021,-10.793 -0.021,-16.188 -0.007,-0.914 0.194,-1.237 1.168,-1.203 1.972,0.069 1.974,0.011 1.974,1.936 0.003,1.949 0.003,3.898 0.003,6.049 z"
       id="path19"
       inkscape:connector-curvature="0"
       style="fill:#202102" /><path
       style="fill:#202103"
       d="m 289.89062,53.294922 c -8.16001,0.0015 -16.32396,2.028384 -22.43359,6.0625 -14.88131,9.823801 -16.65191,29.623915 -3.5918,41.814458 7.33402,6.83769 16.39847,9.1912 26.18946,9.27734 6.32497,0.0328 12.42468,-1.11117 18.06054,-3.98242 9.14291,-4.66375 15.34449,-11.654277 16.18946,-22.347659 0.82856,-10.545718 -3.1913,-18.862557 -12.00196,-24.736329 -6.09526,-4.064879 -14.25209,-6.089428 -22.41211,-6.08789 z m 0.2168,8.228516 c 11.75575,0.221496 20.93555,9.138034 20.93555,20.335937 0.004,11.73934 -8.99482,20.452735 -21.14844,20.460935 -12.22335,0.0123 -21.075,-8.581158 -21.05859,-20.439451 0.0164,-11.599879 9.40088,-20.587122 21.27148,-20.357421 z"
       transform="matrix(0.24379564,0,0,0.24379564,219.71892,369.97091)"
       id="path21"
       inkscape:connector-curvature="0" /><path
       style="fill:#202103"
       d="m 524.63281,53.257812 c -3.80852,-0.01769 -7.57425,0.494135 -11.28125,1.457032 -12.98628,3.367574 -20.94765,13.095577 -21.0625,25.59375 -0.13536,15.02898 6.69471,24.512286 20.67774,28.310546 10.18476,2.76461 20.37031,2.16184 30.6289,-0.004 4.58171,-0.96802 6.13167,-3.00911 5.70508,-7.61132 -0.29123,-3.064045 -0.52989,-4.205562 -3.83594,-2.638676 -4.75808,2.255986 -9.94618,3.219886 -15.17187,3.769536 -10.11093,1.06646 -20.50901,-4.470641 -23.51563,-12.501958 -1.76787,-4.717065 -1.30516,-5.459764 3.58008,-5.484374 6.55877,-0.03281 13.10939,-0.0076 19.66406,-0.01172 6.88282,-0.0041 13.76993,-0.16349 20.64454,0.07031 3.19119,0.106647 3.77344,-0.976783 3.56836,-3.96289 -1.1239,-16.243113 -9.64694,-25.189362 -25.7793,-26.789063 -1.27874,-0.12613 -2.55276,-0.191369 -3.82227,-0.197266 z m 0.16407,8.279297 c 7.1647,0.244967 13.12085,4.340109 15.20507,10.408203 1.18542,3.441407 0.74966,5.132047 -3.46289,4.861329 -4.56119,-0.291228 -9.147,-0.0623 -13.72461,-0.06641 -4.73757,0 -9.48742,-0.08165 -14.21679,0.0332 -2.30111,0.05332 -2.81624,-0.825076 -2.32813,-2.9375 1.56279,-6.817185 8.66534,-11.981037 17.07813,-12.296876 0.4876,-0.01846 0.97157,-0.01828 1.44922,-0.002 z"
       transform="matrix(0.24379564,0,0,0.24379564,219.71892,369.97091)"
       id="path23"
       inkscape:connector-curvature="0" /><path
       d="m 317.411,394.277 c 1.393,-3.361 2.652,-6.407 3.913,-9.453 0.554,-1.336 1.977,-1.982 3.31,-1.462 0.685,0.267 0.134,0.669 0.009,0.95 -1.507,3.391 -3.034,6.772 -4.567,10.152 -0.691,1.525 -1.336,3.079 -2.129,4.552 -1.455,2.702 -3.614,3.717 -6.566,3.292 -0.7,-0.102 -0.988,-0.311 -0.801,-1.063 0.142,-0.562 -0.02,-1.148 0.979,-1.004 1.936,0.282 3.502,-0.854 4.097,-2.718 0.171,-0.536 -0.062,-0.935 -0.257,-1.362 -1.786,-3.924 -3.562,-7.852 -5.38,-11.76 -0.38,-0.818 -0.323,-1.091 0.666,-1.084 2.27,0.016 2.267,-0.024 3.125,2.094 1.152,2.844 2.308,5.687 3.601,8.866 z"
       id="path25"
       inkscape:connector-curvature="0"
       style="fill:#202103" /><path
       d="m 337.181,394.548 c 0.272,2.033 0.169,2.186 -1.727,2.313 -0.635,0.043 -1.278,0.048 -1.913,-0.012 -2.789,-0.263 -3.975,-1.568 -3.977,-4.339 -0.001,-2.076 -0.034,-4.153 0.018,-6.229 0.021,-0.804 -0.25,-1.074 -1.025,-0.993 -0.513,0.054 -1.047,-0.055 -1.554,0.024 -1.072,0.167 -1.267,-0.334 -1.209,-1.273 0.037,-0.623 0.291,-0.723 0.808,-0.703 0.678,0.025 1.361,-0.042 2.035,0.014 0.759,0.062 1.003,-0.254 0.937,-0.969 -0.041,-0.436 0.021,-0.88 -0.015,-1.316 -0.052,-0.625 0.186,-0.886 0.818,-1.06 2.262,-0.617 2.253,-0.651 2.255,1.717 0.002,1.615 0.002,1.615 1.587,1.615 0.559,0 1.119,0.023 1.677,-0.006 0.707,-0.038 1.193,-0.004 1.188,0.973 -0.006,0.915 -0.372,1.058 -1.14,1.007 -0.795,-0.054 -1.6,0.033 -2.394,-0.024 -0.762,-0.056 -0.947,0.256 -0.933,0.965 0.04,1.916 0.01,3.833 0.018,5.75 0.009,2.245 1.275,3.241 3.507,2.768 0.346,-0.076 0.69,-0.148 1.039,-0.222 z"
       id="path27"
       inkscape:connector-curvature="0"
       style="fill:#202103" /><path
       d="m 366.322,396.895 c -1.769,0.01 -3.254,-0.239 -4.646,-0.91 -2.595,-1.249 -4.142,-3.253 -4.152,-6.189 -0.012,-2.769 1.771,-5.087 4.556,-6.14 2.275,-0.86 4.602,-0.833 6.952,-0.341 1.29,0.269 0.438,1.123 0.473,1.7 0.052,0.892 -0.599,0.375 -0.896,0.308 -1.379,-0.312 -2.755,-0.483 -4.142,-0.105 -2.478,0.676 -3.976,3.046 -3.573,5.619 0.389,2.495 2.841,4.266 5.683,4.051 0.709,-0.055 1.402,-0.292 2.111,-0.385 0.332,-0.044 0.932,-0.667 0.974,0.163 0.032,0.626 0.721,1.579 -0.483,1.896 -1.009,0.266 -2.045,0.366 -2.857,0.333 z"
       id="path29"
       inkscape:connector-curvature="0"
       style="fill:#202103" /><path
       d="m 306.38,386.864 c 0,2.912 -0.029,5.825 0.02,8.736 0.014,0.807 -0.247,0.998 -1.012,0.994 -2.128,-0.013 -2.128,0.021 -2.128,-2.132 0,-5.426 0.023,-10.852 -0.023,-16.275 -0.008,-0.922 0.261,-1.132 1.137,-1.111 2.007,0.047 2.008,10e-4 2.008,2.009 -0.002,2.593 -0.002,5.186 -0.002,7.779 z"
       id="path31"
       inkscape:connector-curvature="0"
       style="fill:#202102" /><path
       d="m 311.658,407.617 c -0.001,-0.359 0.021,-0.721 -0.006,-1.078 -0.068,-0.943 0.241,-1.307 1.143,-0.762 0.447,0.271 0.72,-0.167 1.083,-0.234 0.992,-0.186 1.929,0.526 2.706,0.44 0.831,-0.093 1.694,-0.595 2.617,-0.425 0.824,0.15 1.361,0.633 1.34,1.563 -0.015,0.64 -0.019,1.277 0.004,1.916 0.015,0.438 -0.11,0.654 -0.6,0.653 -0.478,-10e-4 -0.632,-0.192 -0.611,-0.644 0.021,-0.518 -0.006,-1.038 0.007,-1.557 0.016,-0.71 -0.119,-1.29 -1.002,-1.31 -0.87,-0.021 -1.495,0.319 -1.617,1.23 -0.074,0.55 -0.042,1.117 -0.017,1.675 0.022,0.492 -0.214,0.604 -0.649,0.6 -0.408,-0.006 -0.57,-0.168 -0.561,-0.569 0.016,-0.519 -0.009,-1.038 0.005,-1.557 0.021,-0.761 -0.136,-1.367 -1.072,-1.382 -0.894,-0.013 -1.459,0.388 -1.556,1.296 -0.054,0.514 -0.027,1.037 -0.009,1.557 0.018,0.431 -0.098,0.659 -0.592,0.659 -0.473,-10e-4 -0.642,-0.18 -0.618,-0.638 0.025,-0.474 0.005,-0.954 0.005,-1.433 z"
       id="path33"
       inkscape:connector-curvature="0"
       style="fill:#222104" /><path
       d="m 246.356,381.058 c -1.978,0 -1.995,0 -1.976,-1.917 0.022,-2.373 -0.311,-2.01 1.993,-2.029 2.004,-0.018 2.004,0 2.006,2.019 0.003,1.927 0.003,1.927 -2.023,1.927 z"
       id="path35"
       inkscape:connector-curvature="0"
       style="fill:#bc0f34" /><path
       style="fill:#282705"
       d="m 440.98633,145.5625 c -2.44365,0.0487 -4.87594,0.67796 -7.27344,1.90234 -2.84665,1.45204 -4.42286,3.87501 -4.32031,7.11133 0.11485,3.17479 1.60413,5.68039 4.5,7.0586 4.77449,2.27649 9.7667,2.29381 14.82422,1.08789 1.23464,-0.29123 2.33752,-0.80832 1.89453,-2.24805 -0.51273,-1.65713 -1.87866,-0.78302 -2.86719,-0.54102 -3.22811,0.77934 -6.43595,1.1409 -9.58203,-0.25781 -1.34539,-0.59886 -3.04317,-1.48077 -2.875,-2.99023 0.2338,-2.08372 2.31379,-1.08359 3.59766,-1.21485 1.612,-0.16817 3.26436,-0.041 4.88867,-0.041 0.98443,-0.004 1.99018,0.12657 2.93359,-0.0293 1.96476,-0.31994 5.0947,1.23529 5.64844,-1.11914 0.66859,-2.86305 -0.99397,-5.78684 -4.0293,-7.14453 -2.44262,-1.09108 -4.8962,-1.62293 -7.33984,-1.57422 z m 0.22851,2.98828 c 2.36264,-0.0205 5.65529,0.33697 5.47071,2.81445 -0.23381,3.05174 -3.74502,0.65659 -5.5293,1.67383 -1.94835,-0.80805 -5.36972,1.05853 -5.5625,-1.27539 -0.25021,-2.89176 3.10669,-3.18418 5.62109,-3.21289 z"
       transform="matrix(0.24379564,0,0,0.24379564,219.71892,369.97091)"
       id="path37"
       inkscape:connector-curvature="0" /><path
       style="fill:#242404"
       d="m 639.70898,145.69141 c -0.16407,0 -0.32421,0.01 -0.48828,0.0137 -7.69907,0.0943 -12.49883,3.52176 -12.4414,8.88281 0.0533,5.05752 5.45232,8.84922 12.67968,8.89844 7.33812,0.0492 13.22267,-4.05772 13.0586,-9.11524 -0.16407,-5.17646 -5.30641,-8.66738 -12.8086,-8.67968 z m 0.0977,2.84375 c 4.29048,0.0697 7.54688,2.65781 7.54688,6.02539 0,3.55625 -3.3679,6.0834 -8.02344,6.01367 -4.51608,-0.0697 -7.43555,-2.43691 -7.43555,-6.01367 0.008,-3.74084 3.1007,-6.09923 7.91211,-6.02539 z"
       transform="matrix(0.24379564,0,0,0.24379564,219.71892,369.97091)"
       id="path39"
       inkscape:connector-curvature="0" /><path
       style="fill:#232305"
       d="m 547.80469,145.57227 c -2.39289,0.0282 -4.80924,0.52798 -7.21289,1.21093 -0.91881,0.25842 -1.31232,0.90288 -1.11133,1.83399 0.25431,1.17311 1.06597,0.94318 1.85351,0.66015 2.52671,-0.91059 5.1356,-0.88673 7.74024,-0.64062 1.70635,0.16817 3.54923,0.81258 3.29492,2.81836 -0.2297,1.76377 -2.13392,0.87733 -3.29883,1.0332 -1.11979,0.14767 -2.28353,0.026 -3.42383,0.0957 -6.09937,0.37737 -9.38556,2.50879 -9.16406,5.92969 0.20509,3.30195 4.21706,5.27639 9.86524,4.92774 3.19119,-0.19689 6.17597,-2.4169 9.61328,-0.63672 1.06236,0.55784 2.02266,-0.43116 1.83398,-1.99805 -0.16817,-1.44383 -0.0371,-2.93178 -0.0371,-3.87109 -0.39377,-3.79006 1.04222,-7.71571 -2.875,-9.7461 -2.31546,-1.20182 -4.68524,-1.64538 -7.07812,-1.61718 z m 1.36523,9.17578 c 1.79659,0.0984 4.03616,-0.19994 3.60547,2.1914 -0.56195,3.11327 -3.33969,3.58418 -6.04687,3.6211 -2.09602,0.0328 -5.30022,0.0451 -4.94336,-2.41602 0.58245,-4.04027 4.93189,-2.38744 7.38476,-3.39648 z"
       transform="matrix(0.24379564,0,0,0.24379564,219.71892,369.97091)"
       id="path41"
       inkscape:connector-curvature="0" /><path
       d="m 307.373,407.792 c 0.002,0.358 -0.028,0.723 0.009,1.076 0.074,0.729 -0.334,1.064 -0.894,0.743 -0.539,-0.313 -0.89,-0.04 -1.314,0.061 -1.054,0.247 -2.151,0.333 -2.9,-0.539 -0.797,-0.928 -0.345,-2.146 -0.365,-3.24 -0.007,-0.384 0.382,-0.313 0.652,-0.33 0.369,-0.022 0.486,0.186 0.486,0.514 0,0.52 0.019,1.038 0.006,1.557 -0.021,0.895 0.297,1.47 1.289,1.479 0.943,0.01 1.662,-0.299 1.793,-1.341 0.063,-0.513 0.053,-1.035 0.048,-1.555 -0.005,-0.436 0.142,-0.653 0.618,-0.663 0.521,-0.011 0.581,0.28 0.572,0.685 -0.008,0.515 -10e-4,1.033 0,1.553 z"
       id="path43"
       inkscape:connector-curvature="0"
       style="fill:#252504" /><path
       d="m 333.977,407.635 c 0,-0.319 0.009,-0.64 -0.002,-0.958 -0.032,-0.901 0.05,-1.631 1.188,-0.816 0.27,0.191 0.438,-0.067 0.642,-0.131 1.108,-0.348 2.266,-0.523 3.161,0.337 0.915,0.879 0.385,2.121 0.459,3.206 0.025,0.38 -0.313,0.396 -0.603,0.406 -0.313,0.011 -0.552,-0.061 -0.551,-0.442 0.002,-0.521 -0.009,-1.038 -0.006,-1.557 0.006,-0.8 -0.187,-1.436 -1.149,-1.488 -0.984,-0.055 -1.765,0.205 -1.924,1.316 -0.073,0.511 -0.064,1.035 -0.058,1.554 0.007,0.472 -0.215,0.618 -0.656,0.623 -0.461,0.005 -0.51,-0.259 -0.503,-0.612 0.009,-0.48 0.003,-0.959 0.002,-1.438 z"
       id="path45"
       inkscape:connector-curvature="0"
       style="fill:#252504" /><path
       d="m 388.22,408.193 c -0.001,0.32 -0.017,0.641 0.002,0.96 0.022,0.437 -0.217,0.532 -0.593,0.53 -0.363,-0.002 -0.627,-0.059 -0.612,-0.513 0.016,-0.519 -10e-4,-1.039 -0.002,-1.559 0,-0.897 -0.349,-1.449 -1.343,-1.438 -0.958,0.012 -1.646,0.348 -1.759,1.388 -0.051,0.475 -0.022,0.959 -0.011,1.438 0.01,0.401 -0.042,0.677 -0.563,0.689 -0.566,0.014 -0.66,-0.257 -0.649,-0.729 0.021,-0.919 0.037,-1.841 -0.003,-2.759 -0.03,-0.681 0.475,-0.848 0.803,-0.581 0.493,0.402 0.835,0.14 1.263,0.043 2.508,-0.568 3.725,0.279 3.467,2.531 z"
       id="path47"
       inkscape:connector-curvature="0"
       style="fill:#212204" /><path
       d="m 270.76,407.57 c 0,-0.358 0.011,-0.717 -0.002,-1.075 -0.031,-0.829 0.218,-1.313 1.063,-0.704 0.349,0.25 0.518,0.023 0.729,-0.064 0.691,-0.29 1.413,-0.305 2.115,-0.182 0.957,0.168 1.604,0.672 1.516,1.784 -0.038,0.476 0.013,0.956 -0.008,1.434 -0.018,0.396 0.177,0.942 -0.563,0.915 -0.729,-0.028 -0.481,-0.583 -0.523,-0.969 -0.043,-0.395 -0.051,-0.794 -0.063,-1.19 -0.026,-0.849 -0.385,-1.348 -1.306,-1.335 -0.949,0.013 -1.647,0.339 -1.771,1.37 -0.061,0.511 -0.034,1.033 -0.032,1.551 0.002,0.392 -0.153,0.579 -0.565,0.578 -0.396,-10e-4 -0.59,-0.152 -0.584,-0.559 0.008,-0.518 0.002,-1.036 0.002,-1.554 -0.003,0 -0.006,0 -0.008,0 z"
       id="path49"
       inkscape:connector-curvature="0"
       style="fill:#272703" /><path
       d="m 289.979,409.824 c -1.43,-0.05 -1.814,-0.49 -1.851,-1.938 -0.02,-0.764 0.438,-1.894 -1.108,-1.688 -0.172,0.023 -0.271,-0.138 -0.236,-0.327 0.03,-0.176 0.14,-0.288 0.319,-0.29 0.559,-0.005 1.09,0.054 1.112,-0.801 0.009,-0.352 0.535,-0.229 0.829,-0.285 0.288,-0.056 0.314,0.197 0.291,0.388 -0.102,0.789 0.439,0.667 0.913,0.68 0.295,0.008 0.736,-0.092 0.672,0.412 -0.048,0.374 -0.44,0.271 -0.687,0.249 -0.623,-0.061 -1.046,0.077 -0.885,0.813 0.158,0.722 -0.529,1.756 0.764,2.08 0.303,0.075 0.882,-0.297 0.869,0.256 -0.013,0.617 -0.672,0.348 -1.002,0.451 z"
       id="path51"
       inkscape:connector-curvature="0"
       style="fill:#242404" /><path
       d="m 282.172,405.485 c 0.295,0.014 0.536,0.011 0.773,0.04 0.272,0.033 0.621,0.047 0.593,0.433 -0.034,0.446 -0.4,0.243 -0.651,0.262 -0.555,0.038 -1.419,-0.323 -1.53,0.403 -0.088,0.582 0.837,0.554 1.32,0.776 0.535,0.246 1.198,0.347 1.171,1.149 -0.027,0.838 -0.674,1.002 -1.302,1.164 -0.671,0.175 -1.351,0.147 -2.02,-0.017 -0.256,-0.063 -0.595,-0.095 -0.481,-0.514 0.097,-0.362 0.349,-0.215 0.569,-0.158 0.078,0.019 0.158,0.052 0.234,0.047 0.597,-0.04 1.493,0.366 1.661,-0.426 0.135,-0.638 -0.801,-0.563 -1.264,-0.801 -0.575,-0.296 -1.492,-0.391 -1.219,-1.323 0.314,-1.061 1.327,-0.978 2.146,-1.035 z"
       id="path53"
       inkscape:connector-curvature="0"
       style="fill:#262604" /><path
       d="m 346.153,409.827 c -1.501,-0.063 -1.866,-0.481 -1.896,-1.946 -0.017,-0.776 0.398,-1.893 -1.136,-1.669 -0.175,0.025 -0.27,-0.134 -0.25,-0.316 0.026,-0.242 0.19,-0.334 0.409,-0.329 0.536,0.011 1.041,0.056 1.045,-0.749 0.002,-0.342 0.43,-0.271 0.688,-0.302 0.303,-0.036 0.443,0.153 0.425,0.43 -0.051,0.707 0.442,0.602 0.873,0.615 0.267,0.008 0.641,-0.061 0.665,0.317 0.035,0.543 -0.442,0.354 -0.697,0.341 -0.584,-0.03 -0.966,0.114 -0.819,0.775 0.159,0.727 -0.525,1.742 0.722,2.112 0.327,0.097 0.967,-0.321 0.938,0.308 -0.024,0.599 -0.715,0.265 -0.967,0.413 z"
       id="path55"
       inkscape:connector-curvature="0"
       style="fill:#262604" /><path
       d="m 362.323,409.826 c -1.384,-0.061 -1.784,-0.479 -1.8,-1.835 -0.003,-0.278 -0.02,-0.56 0.002,-0.837 0.045,-0.591 -0.032,-1.041 -0.808,-0.932 -0.212,0.029 -0.52,0.07 -0.547,-0.277 -0.025,-0.327 0.228,-0.396 0.479,-0.377 0.56,0.042 0.817,-0.13 0.967,-0.743 0.098,-0.395 0.89,-0.514 0.969,-0.06 0.141,0.804 0.562,0.822 1.149,0.795 0.242,-0.014 0.519,0.009 0.528,0.329 0.017,0.456 -0.367,0.352 -0.605,0.332 -0.655,-0.054 -1.136,0.055 -0.978,0.874 0.141,0.729 -0.478,1.773 0.851,2.021 0.299,0.056 0.895,-0.269 0.843,0.293 -0.052,0.571 -0.697,0.337 -1.05,0.417 z"
       id="path57"
       inkscape:connector-curvature="0"
       style="fill:#252503" /><path
       d="m 265.101,406.839 c 0,-0.716 0.017,-1.432 -0.007,-2.146 -0.014,-0.445 0.125,-0.636 0.604,-0.635 0.479,0.001 0.611,0.192 0.606,0.637 -0.017,1.471 -0.012,2.941 -0.004,4.412 0.002,0.384 -0.12,0.581 -0.543,0.578 -0.415,-0.003 -0.681,-0.078 -0.664,-0.58 0.027,-0.755 0.009,-1.511 0.008,-2.266 z"
       id="path59"
       inkscape:connector-curvature="0"
       style="fill:#202103" /><path
       d="m 294.767,407.484 c -10e-4,-0.358 0.009,-0.718 -0.004,-1.076 -0.03,-0.847 0.289,-1.118 1.056,-0.651 0.583,0.355 0.962,-0.438 1.513,-0.256 0.302,0.101 0.811,-0.236 0.886,0.307 0.088,0.644 -0.467,0.371 -0.757,0.397 -0.953,0.086 -1.43,0.632 -1.525,1.536 -0.046,0.436 -0.022,0.876 -0.021,1.314 0,0.357 -0.082,0.609 -0.521,0.624 -0.47,0.015 -0.64,-0.196 -0.627,-0.642 0.012,-0.516 0.002,-1.034 0,-1.553 z"
       id="path61"
       inkscape:connector-curvature="0"
       style="fill:#222204" /><path
       d="m 368.49,407.651 c 0,0.52 0.007,1.04 -0.003,1.559 -0.008,0.447 -0.327,0.473 -0.668,0.479 -0.343,0.006 -0.521,-0.13 -0.52,-0.486 0.003,-1.039 0.005,-2.078 -0.005,-3.118 -0.004,-0.425 0.22,-0.538 0.602,-0.537 0.385,10e-4 0.607,0.128 0.602,0.547 -0.007,0.52 -0.002,1.038 -0.002,1.559 -0.002,-0.003 -0.004,-0.003 -0.006,-0.003 z"
       id="path63"
       inkscape:connector-curvature="0"
       style="fill:#312f03" /><path
       d="m 367.86,403.827 c 0.305,0.03 0.682,-0.111 0.681,0.423 -0.002,0.471 -0.29,0.493 -0.634,0.486 -0.363,-0.007 -0.762,0.038 -0.743,-0.512 0.017,-0.516 0.426,-0.347 0.696,-0.397 z"
       id="path65"
       inkscape:connector-curvature="0"
       style="fill:#202005" /></g></svg>