<?xml version="1.0" encoding="UTF-8" standalone="no"?>
<svg id="svg2" xmlns:rdf="http://www.w3.org/1999/02/22-rdf-syntax-ns#" xmlns="http://www.w3.org/2000/svg" xml:space="preserve" height="311.04" width="1e3" version="1.1" xmlns:cc="http://creativecommons.org/ns#" xmlns:dc="http://purl.org/dc/elements/1.1/"><metadata id="metadata8"><rdf:RDF><cc:Work rdf:about=""><dc:format>image/svg+xml</dc:format><dc:type rdf:resource="http://purl.org/dc/dcmitype/StillImage"/><dc:title/></cc:Work></rdf:RDF></metadata><g id="g2998" transform="matrix(4.5201 0 0 4.5201 .0012250 .010758)"><g id="g10" transform="matrix(1.25 0 0 -1.25 76.86 145.61)"><path id="path22" fill="#005187" d="m2.6251 90.773 2.7026-0.0046c0.01968 0 0.03936 0.0046 0.06768 0.0046 0.58488-0.0046 1.0423 0.0077 1.3274 0.08544 0.28488 0.09 0.37488 0.16032 0.49224 0.43416 0.07032 0.18744 0.1284 0.48456 0.1284 0.91008 0.00456 0.90574-0.1248 1.3239-0.25776 1.4411-0.10872 0.13687-0.44904 0.23062-1.188 0.22313h-3.2726v-3.0939zm-2.0429-5.5274v10.418h5.8481c1.1006 0.003 1.9097-0.357 2.3748-1.008 0.4613-0.641 0.5736-1.453 0.5774-2.314-0.0038-0.437 0.0046-1.238-0.3751-1.984-0.3823-0.762-1.2374-1.397-2.6446-1.382h-3.7378v-3.7303h-2.0429"/><path id="path24" fill="#005187" d="m18.593 93.941c-0.87096 0.0037-1.321-0.11719-1.5038-0.30845-0.19872-0.18-0.33552-0.62155-0.33192-1.5282v-3.4133c0-0.918 0.1764-1.289 0.38736-1.4532 0.21-0.18384 0.69096-0.27288 1.4484-0.27288h1.4335c0.76584 0 1.243 0.08904 1.4568 0.27288 0.21096 0.16416 0.38328 0.5352 0.38328 1.4532v3.4133c0.0038 0.90665-0.1368 1.3482-0.33168 1.5282-0.18 0.19126-0.63384 0.31219-1.5084 0.30845h-1.4335m1.4371 1.7972c1.3642-0.01594 2.34-0.21094 3.0122-0.83251 0.67224-0.63281 0.87096-1.5694 0.87096-2.8013v-3.4133c0-1.1767-0.23808-2.0981-0.91416-2.7077-0.67968-0.60456-1.6519-0.81168-2.9726-0.81168h-1.4335c-1.3162 0-2.2922 0.20712-2.9681 0.81168-0.67704 0.6096-0.91032 1.531-0.91032 2.7077v3.4133c0 1.232 0.19872 2.1685 0.86232 2.8013 0.67608 0.62158 1.6529 0.81658 3.0161 0.83251h1.4335"/><path id="path26" fill="#005187" d="m30.34 85.246v10.418h2.0429v-8.6214h5.4216v-1.7971h-7.4645"/><path id="path28" fill="#005187" d="m45.582 85.25v4.2778l-4.289 6.1369h2.43l2.9371-4.1718 2.9261 4.1718h2.4797l-4.4374-6.1369v-4.2778h-2.0465"/><path id="path30" fill="#005187" d="m59.917 85.25v8.6175h-3.449v1.7972h8.9419v-1.7972h-3.449v-8.6175h-2.0438"/><path id="path32" fill="#005187" d="m71.121 85.246v10.418h7.6884v-1.7972h-5.6371v-2.4178h5.3868v-1.7316h-5.3868v-2.6748h5.6371v-1.7971h-7.6884"/><path id="path34" fill="#005187" d="m88.59 85.172h-0.0036c-1.051 0-1.939 0.3-2.5661 0.90168-0.6252 0.60936-0.9468 1.489-0.94224 2.5277v3.7068c-0.01968 1.4381 0.54288 2.4141 1.4729 2.895 0.9216 0.47345 2.0738 0.53062 3.3826 0.53532h0.99648c1.1635 0 2.011-0.22313 2.5903-0.79313 0.56544-0.57845 0.7332-1.3978 0.7332-2.3831v-0.72182h-2.0345v0.68244c0 0.65345-0.0984 0.99658-0.24648 1.1409-0.1284 0.14813-0.46512 0.28126-1.2187 0.27751h-0.67224c-0.93 0.0037-1.6126-0.03938-2.0616-0.16032-0.4536-0.12842-0.6252-0.27281-0.7584-0.555-0.0852-0.18655-0.14424-0.47626-0.14424-0.88301v-2.628c0-0.81264 0.01968-1.4455 0.1284-1.86 0.11712-0.41808 0.24648-0.58968 0.55488-0.73776 0.21576-0.09 0.54288-0.15192 1.019-0.15192h1.4261c0.7116 0 1.2233 0.0384 1.531 0.13224 0.31296 0.10584 0.39552 0.18744 0.48936 0.38256 0.05424 0.1452 0.09264 0.36288 0.08904 0.67584v1.187h2.0513v-1.3154c0.01104-1.1842-0.48-2.0232-1.278-2.4142-0.7884-0.39072-1.7614-0.4368-2.8358-0.44136h-1.7026"/><path id="path36" fill="#005187" d="m107.98 85.246v4.4064h-5.3906v-4.4064h-2.0429v10.418h2.0503l-0.007-4.215h5.3906v4.215h2.0503v-10.418h-2.0503"/><path id="path38" fill="#005187" d="m114.81 95.414c-0.0581-0.36655-0.3432-0.58219-0.66648-0.58219-0.48576 0-0.79032 0.35906-0.79032 0.82032 0 0.46874 0.28968 0.82032 0.78192 0.82032 0.33168 0 0.6168-0.195 0.6684-0.56626h-0.29352c-0.0394 0.16781-0.1884 0.27281-0.37488 0.27281-0.27864 0-0.42576-0.22219-0.42576-0.52313 0-0.285 0.15936-0.52687 0.43416-0.52687 0.19872 0 0.342 0.10874 0.36648 0.285h0.3zm-0.72552-0.85219c0.5736 0 1.0387 0.45751 1.0387 1.0819 0 0.62532-0.46512 1.0828-1.0387 1.0828-0.5748 0-1.0351-0.45751-1.0351-1.0828 0-0.62436 0.46032-1.0819 1.0351-1.0819m0 2.4534c0.75 0 1.4136-0.53532 1.4136-1.3716 0-0.82781-0.6636-1.3744-1.4136-1.3744-0.73896 0-1.4026 0.54655-1.4026 1.3744 0 0.83626 0.6636 1.3716 1.4026 1.3716"/><path id="path40" fill="#009ee0" d="m-35.957 116.49c-12.625 0-23.145-8.9766-25.531-20.895h10.656c0.77719 2.2744 2.0738 4.305 3.7463 5.985 2.8631 2.8547 6.7659 4.605 11.129 4.6087 4.3584-0.004 8.2574-1.7541 11.124-4.6087 2.8558-2.8631 4.6051-6.7622 4.6099-11.125-0.0048-4.3632-1.7542-8.2661-4.6099-11.129-2.8668-2.8517-6.7658-4.6058-11.124-4.6087-4.3632 0.0029-8.266 1.757-11.129 4.6087-1.6603 1.6642-2.9372 3.6845-3.7266 5.9306h-10.653v-13.274c0-11.187 9.6844-10.536 9.6844-10.536l0.0075 8.3242c4.3819-3.3545 9.8634-5.3551 15.817-5.3551 14.383 0.0048 26.031 11.656 26.031 26.039 0 14.379-11.647 26.031-26.031 26.035"/><path id="path42" fill="#009ee0" d="m1.7025 73.289h3.809v-1.0706h-4.9997v7.7774h1.1906v-6.7068"/><path id="path44" fill="#009ee0" d="m7.6677 79.996v-7.7775h1.1906v7.7775h-1.1906z"/><path id="path46" fill="#009ee0" d="m12.883 73.289h3.8081v-1.0706h-5.0006v7.7774h1.1926v-6.7068"/><path id="path48" fill="#009ee0" d="m20.039 73.289h3.8129v-1.0706h-5.0045v7.7774h1.1916v-6.7068"/><path id="path50" fill="#009ee0" d="m26.965 76.673h3.7884v-0.91896h-3.7884v-2.5358h3.9871v-0.99936h-5.1758v7.7774h5.1497v-1.0039h-3.961v-2.3194"/></g></g></svg>
